<?xml version="1.0" encoding="UTF-8" standalone="no"?>
<!-- Created with Inkscape (http://www.inkscape.org/) -->

<svg
   width="252.11142mm"
   height="104.15864mm"
   viewBox="0 0 252.11142 104.15864"
   version="1.1"
   id="svg1"
   xml:space="preserve"
   inkscape:version="1.3.2 (091e20e, 2023-11-25, custom)"
   sodipodi:docname="BIBC.svg"
   xmlns:inkscape="http://www.inkscape.org/namespaces/inkscape"
   xmlns:sodipodi="http://sodipodi.sourceforge.net/DTD/sodipodi-0.dtd"
   xmlns="http://www.w3.org/2000/svg"
   xmlns:svg="http://www.w3.org/2000/svg"><sodipodi:namedview
     id="namedview1"
     pagecolor="#505050"
     bordercolor="#ffffff"
     borderopacity="1"
     inkscape:showpageshadow="0"
     inkscape:pageopacity="0"
     inkscape:pagecheckerboard="1"
     inkscape:deskcolor="#505050"
     inkscape:document-units="mm"
     inkscape:zoom="0.24242752"
     inkscape:cx="1814.9755"
     inkscape:cy="-373.30745"
     inkscape:window-width="1366"
     inkscape:window-height="745"
     inkscape:window-x="-8"
     inkscape:window-y="-8"
     inkscape:window-maximized="1"
     inkscape:current-layer="layer1" /><defs
     id="defs1" /><g
     inkscape:label="Layer 1"
     inkscape:groupmode="layer"
     id="layer1"
     transform="translate(-398.28271,338.62747)"><g
       id="g11"
       transform="translate(0,-143.54184)"
       style="fill:#d27f2d;fill-opacity:1"><path
         style="fill:#d27f2d;fill-opacity:1"
         d="m 456.82729,-113.75433 c 0.41172,-1.12778 1.5613,-4.22895 2.55464,-6.89147 l 1.80606,-4.84095 1.34053,0.0785 1.34052,0.0784 2.32093,6.21771 c 3.04145,8.14799 2.89601,7.40833 1.45668,7.40833 h -1.18388 l -0.5273,-1.38906 -0.52729,-1.38906 -2.93152,-0.0747 -2.93151,-0.0747 -0.4614,1.46372 -0.4614,1.46372 h -1.27182 -1.27181 z m 6.81754,-5.87271 c -0.59916,-1.7384 -1.16387,-3.07785 -1.2549,-2.97656 -0.091,0.10129 -0.55501,1.37479 -1.03104,2.83 -0.47604,1.45521 -0.92031,2.79466 -0.98727,2.97656 -0.0914,0.24815 0.43814,0.33073 2.12042,0.33073 h 2.24218 z m 15.18249,1.01404 v -6.90919 l 3.63802,0.11427 c 2.50523,0.0787 3.93472,0.24349 4.59088,0.52926 1.3315,0.57989 2.1635,1.85115 2.28628,3.49332 0.1305,1.74562 -0.52783,2.98495 -2.03346,3.82805 -0.97259,0.54461 -1.45615,0.62559 -3.6117,0.60483 l -2.48877,-0.024 v 2.63632 2.63631 h -1.19062 -1.19063 z m 7.55265,-0.88399 c 0.44838,-0.44838 0.64943,-0.94356 0.64943,-1.59953 0,-0.65596 -0.20105,-1.15114 -0.64943,-1.59952 -0.58819,-0.58819 -0.86264,-0.64943 -2.91041,-0.64943 h -2.26099 v 2.24895 2.24896 h 2.26099 c 2.04777,0 2.32222,-0.0612 2.91041,-0.64943 z m 13.41111,0.98016 0.0706,-6.81302 3.71244,0.008 c 3.23968,0.007 3.8292,0.0762 4.62931,0.54347 2.9058,1.69708 2.84767,5.90814 -0.10151,7.35339 -0.74519,0.36518 -1.65407,0.50515 -3.43609,0.52916 l -2.4229,0.0327 -0.0757,2.57969 -0.0757,2.57968 h -1.18551 -1.18551 z m 7.61804,-0.99942 c 0.90191,-0.96004 0.85722,-2.37789 -0.10093,-3.20205 -0.64262,-0.55276 -0.99421,-0.62717 -2.96333,-0.62717 h -2.23421 v 2.24895 2.24896 h 2.33513 c 2.15545,0 2.38347,-0.0514 2.96334,-0.66869 z m 11.11002,7.6285 c 0.002,-0.11711 1.10864,-3.18949 2.45838,-6.82752 l 2.45406,-6.61458 1.34491,-0.0788 c 1.09448,-0.0641 1.37948,0.01 1.5306,0.39687 0.10214,0.26164 1.17824,3.15461 2.39135,6.42883 1.2131,3.27421 2.2883,6.16148 2.38932,6.41614 0.15993,0.40316 0.0152,0.46302 -1.11923,0.46302 h -1.3029 l -0.4614,-1.46372 -0.4614,-1.46372 -2.93801,0.0747 -2.93801,0.0747 -0.44069,1.32291 c -0.43785,1.31439 -0.44866,1.32344 -1.676,1.40356 -0.67941,0.0444 -1.23336,-0.0152 -1.23098,-0.13229 z m 8.46235,-4.65886 c 0,-0.2132 -1.83226,-5.48733 -2.02643,-5.83303 -0.15595,-0.27767 -0.55208,0.54771 -1.32394,2.75856 l -1.10141,3.15477 h 2.22589 c 1.22424,0 2.22589,-0.0361 2.22589,-0.0803 z m 14.11295,-1.97022 0.0423,-6.81302 3.83645,0.009 c 3.4701,0.008 3.94574,0.0662 4.98083,0.61084 0.82388,0.43349 1.28536,0.91268 1.64783,1.71107 0.90305,1.98907 0.50551,3.73135 -1.16571,5.10891 l -0.9528,0.78537 0.56809,1.17921 c 0.31245,0.64857 0.90673,1.86382 1.32061,2.70057 l 0.75252,1.52135 h -1.29345 -1.29346 l -1.15106,-2.64583 -1.15105,-2.64583 h -1.92492 -1.92493 v 2.64583 2.64583 h -1.16673 -1.16674 z m 7.99239,-1.03082 c 0.73938,-0.7978 0.82067,-1.6397 0.26255,-2.719 -0.47543,-0.91938 -1.00728,-1.07062 -3.78091,-1.07521 l -2.18282,-0.004 v 2.24895 2.24896 h 2.52618 c 2.3919,0 2.56066,-0.0372 3.175,-0.70009 z m 13.61341,0.95871 v -6.88514 l 4.82864,0.0721 4.82865,0.0721 0.0821,0.99219 0.0821,0.99219 h -3.72013 -3.72014 v 1.85208 1.85208 h 3.30729 3.30729 v 1.05834 1.05833 h -3.30729 -3.30729 v 1.98437 1.98438 h 3.70416 3.70417 v 0.92604 0.92604 h -4.89479 -4.89479 z m 20.37291,0.006 v -6.87917 h 1.19063 1.19062 v 5.95312 5.95313 h 3.57188 3.57187 v 0.92604 0.92604 h -4.7625 -4.7625 z"
         id="path9"
         sodipodi:nodetypes="sscccsscccccccccsssssscsccsssssccccccsssscccssccssssccccccssscccsssscssssscccccssssssscsscccssscsscccccccccccccsccccscccccccccccccccccccccccccccccccccccccccc" /><path
         style="fill:#d27f2d;fill-opacity:1"
         d="m 537.67415,-91.126028 c -1.3648,-0.23432 -2.31255,-0.97768 -3.02557,-2.37309 -0.51652,-1.01087 -0.59531,-1.57259 -0.59531,-4.24451 0,-1.6937 0.13503,-3.484172 0.30007,-3.978832 0.47269,-1.41678 1.71552,-2.55364 3.12123,-2.85512 2.23796,-0.47995 4.12872,0.32942 5.12676,2.19459 0.51169,0.95629 0.58007,1.48949 0.58007,4.523652 0,3.03417 -0.0684,3.56736 -0.58007,4.52365 -0.93462,1.74666 -2.78655,2.57718 -4.92718,2.20966 z m 1.61787,-3.74352 c 0.5092,-0.50919 0.42747,-5.620152 -0.0983,-6.145892 -0.49902,-0.49901 -0.70038,-0.5167 -1.11881,-0.0983 -0.33977,0.33977 -0.46619,6.060192 -0.14111,6.385272 0.28081,0.28081 1.01227,0.20482 1.35819,-0.14111 z m 22.22739,3.38037 c -0.82816,-0.3092 -1.5741,-0.63056 -1.65766,-0.71411 -0.0836,-0.0836 0.44521,-1.80214 1.17501,-3.8191 0.72981,-2.01695 1.32693,-3.81818 1.32693,-4.002742 0,-0.18455 -0.29766,-0.53058 -0.66146,-0.76896 -0.61274,-0.40148 -0.71018,-0.40148 -1.32292,0 -0.98943,0.6483 -0.83514,1.758882 0.30481,2.193972 l 0.55444,0.21161 -0.69215,1.78594 c -0.38069,0.98227 -0.76197,1.78594 -0.84729,1.78594 -0.57427,0 -2.73473,-1.81956 -3.16736,-2.66757 -0.90388,-1.77177 -0.52378,-4.247132 0.88362,-5.754482 2.12778,-2.27888 6.26657,-1.78775 7.76666,0.92163 1.05753,1.91005 1.03293,2.419702 -0.30525,6.325102 -0.67736,1.97683 -1.37108,3.92515 -1.54161,4.32961 l -0.31003,0.73536 z m -69.46874,0.20149 c -0.22028,-0.0889 -0.33073,-0.75059 -0.33073,-1.98132 0,-1.72746 0.0345,-1.83692 0.52916,-1.67991 0.67691,0.21484 1.49704,-0.0441 1.68416,-0.53171 0.08,-0.20861 -0.17115,-1.06728 -0.55823,-1.90816 -1.90203,-4.131982 0.18098,-7.493972 4.49647,-7.257322 0.72066,0.0395 0.7276,0.0576 0.7276,1.89198 0,1.6071 -0.063,1.85208 -0.47625,1.85208 -1.24923,0 -1.39697,1.041242 -0.421,2.967222 1.23399,2.43517 0.45849,5.28417 -1.74912,6.42577 -0.72296,0.37386 -3.17886,0.51318 -3.90206,0.22137 z m 19.53222,-0.52191 c -1.83315,-2.33048 1.08837,-5.11516 3.17615,-3.02738 0.95918,0.95918 0.98605,1.84369 0.0884,2.91047 -0.92503,1.09933 -2.44887,1.1539 -3.26457,0.11691 z m -26.72331,-0.0309 c -1.75445,-0.89461 -1.99279,-1.52696 -2.09055,-5.54659 -0.07,-2.876672 8.2e-4,-3.823002 0.35536,-4.751362 0.63548,-1.66397 1.79767,-2.2032 4.74855,-2.2032 h 2.2595 v 1.85208 1.85209 h -1.40229 c -1.45506,0 -2.09663,0.33125 -1.85602,0.958282 0.097,0.25271 0.61851,0.36463 1.69912,0.36463 h 1.55919 v 1.45521 1.45521 h -1.70418 c -1.75695,0 -2.11844,0.17721 -1.84025,0.90216 0.12398,0.32308 0.54888,0.42076 1.83037,0.42076 h 1.66891 l 0.0887,1.74286 c 0.0488,0.95857 0.0391,1.79201 -0.0215,1.85208 -0.0606,0.0601 -1.07267,0.10904 -2.24896,0.10881 -1.51318,-2.9e-4 -2.40407,-0.13572 -3.04595,-0.46302 z m 17.70827,-4.16678 v -4.630202 h -1.5875 -1.5875 v -1.85209 -1.85208 h 4.8948 4.89479 v 1.85208 1.85209 h -1.45521 -1.45521 v 4.630202 4.63021 h -1.85208 -1.85209 z m 21.16667,4.52951 c 0,-0.0554 1.02423,-2.02278 2.27608,-4.37199 1.90327,-3.57169 2.22125,-4.337342 1.94138,-4.674562 -0.18408,-0.22181 -0.58324,-0.36777 -0.88701,-0.32437 -0.43918,0.0627 -0.55429,0.2712 -0.56193,1.017522 -0.009,0.90549 -1.24186,3.42702 -1.67522,3.42702 -0.27658,0 -1.21813,-1.04768 -1.5894,-1.76854 -0.16371,-0.31786 -0.29765,-1.22299 -0.29765,-2.011402 0,-2.91471 2.64569,-5.04875 5.46963,-4.41184 1.35851,0.30639 2.23725,1.01887 2.93089,2.37635 0.85494,1.67315 0.76204,2.725912 -0.44959,5.095142 l -1.04491,2.04321 h 1.11105 1.11106 v 1.85208 1.85208 h -4.16719 c -2.29195,0 -4.16719,-0.0453 -4.16719,-0.1007 z m 24.34167,-6.38159 v -6.482292 h 1.85208 1.85208 v 6.482292 6.48229 h -1.85208 -1.85208 z"
         id="path10"
         sodipodi:nodetypes="sssssssssssssssssssssscssssssscssssssssssssssssssssscccssscccssscsssscccccccccccccccccsssscsssssscccccssccccccccc" /><path
         style="fill:#d27f2d;fill-opacity:1"
         d="m 401.71734,-132.72192 c -2.85017,-0.47233 -3.76543,-1.30378 -3.33278,-3.02759 0.52356,-2.08602 7.37924,-2.40921 13.36769,-0.63018 1.45252,0.43151 3.03812,0.78457 3.52356,0.78457 2.05149,0 8.3241,-5.17176 11.89219,-9.80509 1.80905,-2.34914 4.53252,-6.59462 4.34849,-6.77865 -0.0927,-0.0927 -1.51633,-0.0245 -3.16361,0.15145 -8.79452,0.93965 -14.17428,-2.00604 -15.29623,-8.37546 -0.85165,-4.83491 2.79151,-10.25586 9.36045,-13.9282 3.51708,-1.9662 10.20803,-3.59739 14.75611,-3.59739 2.63523,0 1.76917,0.42134 -1.53045,0.74457 -4.78078,0.46832 -9.27517,1.81739 -13.22828,3.97068 -2.54335,1.38538 -6.02142,4.91453 -7.21731,7.32329 -0.84433,1.70064 -0.91951,2.0468 -0.91951,4.23334 0,2.1453 0.0778,2.52173 0.78532,3.7991 1.99888,3.60885 6.23463,5.32292 12.30678,4.98015 2.9313,-0.16547 4.16411,-0.42676 5.19234,-1.10048 0.3436,-0.22513 2.22301,-2.40215 4.17646,-4.8378 4.3262,-5.39411 7.51799,-8.81645 11.1341,-11.93834 5.86017,-5.05924 9.93668,-7.17451 13.82657,-7.17451 1.76765,0 3.06363,0.4657 3.34636,1.20248 1.39477,3.6347 -4.74862,10.90347 -13.85005,16.38719 -3.44988,2.07859 -8.62224,4.49022 -13.03243,6.07642 -1.30262,0.4685 -2.58311,1.91658 -5.47173,6.18785 -1.33207,1.96966 -5.79549,6.67615 -7.79241,8.21676 -0.76856,0.59294 -2.86118,1.96567 -4.65026,3.05051 l -3.25287,1.97244 1.81591,0.54016 c 2.48838,0.7402 4.83946,1.07706 7.50445,1.07524 4.13434,-0.003 7.90524,-1.80497 12.30312,-5.87975 2.89532,-2.6826 7.33348,-6.23429 9.30781,-7.44868 3.29635,-2.02753 7.38279,-3.0222 8.99376,-2.18913 1.62687,0.84128 1.68719,2.57212 0.19245,5.52185 -0.75828,1.49639 -0.7626,1.53499 -0.17162,1.5331 1.2469,-0.004 2.52229,-0.68972 4.69741,-2.52567 3.008,-2.53898 5.50291,-4.20287 6.94353,-4.63075 1.00001,-0.29701 1.1821,-0.28095 1.65365,0.14579 0.75898,0.68687 0.67269,2.07917 -0.24973,4.02897 -0.59839,1.26488 -1.45142,2.30858 -3.67621,4.49792 -1.59335,1.56796 -3.03682,3.12635 -3.2077,3.46307 -0.84876,1.6725 1.69876,1.77897 4.8854,0.20417 4.71758,-2.33135 9.25226,-7.4598 9.79473,-11.07721 0.16304,-1.08726 0.2688,-1.24856 0.81865,-1.24856 0.56982,0 0.63141,0.11355 0.63141,1.16404 0,1.16964 -0.50417,2.13115 -2.46656,4.70398 -0.88698,1.16289 -0.55492,1.62898 0.92306,1.29564 1.19019,-0.26843 1.25056,-0.30596 3.66017,-2.27583 4.01398,-3.28143 7.64313,-4.9466 10.88478,-4.99428 1.38034,-0.0203 1.87628,0.0821 2.3151,0.47819 1.00842,0.91014 0.61474,2.64666 -0.88862,3.91971 -1.16577,0.98718 -4.39361,2.08739 -7.2078,2.45678 -2.4381,0.32002 -2.89492,0.46187 -3.57099,1.10885 -1.1732,1.1227 -2.32622,2.99633 -2.32622,3.78006 0,1.07303 0.89219,1.85661 2.11395,1.85661 4.52279,0 9.48993,-3.12484 17.39907,-10.9458 1.92815,-1.90665 3.50573,-3.60526 3.50573,-3.77468 0,-0.16942 -1.51805,-1.67704 -3.37344,-3.35027 -11.50548,-10.37589 -17.59457,-19.4785 -18.61603,-27.8292 -0.53558,-4.37858 0.62022,-8.12868 3.28086,-10.64501 1.71238,-1.6195 3.0368,-2.32578 5.40766,-2.88379 3.70256,-0.87144 7.63533,0.01 11.40098,2.55388 1.28364,0.86733 2.48913,1.57695 2.67888,1.57695 0.18974,0 1.05653,-0.47514 1.92618,-1.05588 6.86594,-4.58489 17.49883,-2.20497 20.88572,4.67478 0.71513,1.45265 0.84889,2.05223 0.95063,4.26132 0.3722,8.08187 -4.97161,16.65289 -17.3559,27.83738 -3.26223,2.94618 -4.53971,4.26393 -4.53971,4.68281 0,0.70528 4.77189,4.36924 12.08599,9.27987 7.50303,5.03749 8.5807,5.26424 12.17921,2.56256 2.32189,-1.74323 5.67083,-5.00532 7.62959,-7.43176 3.41565,-4.23115 10.9485,-12.69916 13.64943,-15.34391 3.79042,-3.71159 10.19818,-9.53917 10.95509,-9.96319 2.27161,-1.27256 3.53547,-2.12218 3.66709,-2.4652 0.39466,-1.02847 -3.24306,-2.7767 -7.23074,-3.47498 -7.38229,-1.2927 -18.59075,1.38176 -25.53084,6.09195 -2.23216,1.51495 -5.56451,4.77349 -7.07242,6.91578 -2.89484,4.11271 -3.09865,9.10604 -0.43788,10.72827 1.61237,0.98303 5.37045,0.60175 8.28361,-0.84044 3.35838,-1.66259 9.32099,-6.46646 11.83637,-9.53615 2.03201,-2.47979 3.58273,-5.87952 4.0438,-8.86539 0.28264,-1.83039 0.72917,-1.3461 0.60988,0.66145 -0.18929,3.18557 -2.94497,7.88703 -6.93986,11.84011 -3.5791,3.54163 -8.34337,6.56721 -12.04561,7.64963 -1.76335,0.51555 -4.50074,0.5442 -5.66137,0.0593 -1.97167,-0.82382 -2.98516,-3.048 -2.74046,-6.01414 0.33407,-4.04947 2.82056,-7.878 7.45767,-11.48282 4.96655,-3.86092 10.07431,-6.17932 16.41376,-7.45015 3.07693,-0.61681 12.23695,-0.69124 14.2779,-0.11601 1.40369,0.39562 3.71124,1.49257 5.02709,2.38975 0.43656,0.29766 0.95157,0.54198 1.14446,0.54294 0.19289,9.6e-4 1.14539,-0.45717 2.11667,-1.01806 1.92443,-1.11133 5.54254,-2.56784 5.78256,-2.32782 0.26537,0.26537 -0.15037,0.96638 -0.57313,0.96638 -0.47225,0 -6.11112,2.78217 -6.3183,3.1174 -0.0759,0.1228 0.15341,0.83216 0.50957,1.57635 1.73806,3.63169 1.06143,8.46123 -1.59783,11.40471 -1.21917,1.34948 -4.05278,3.45545 -5.89265,4.37949 -1.58383,0.79544 -1.64237,1.01679 -0.9869,3.73142 0.76034,3.14889 0.34767,5.88711 -1.39192,9.23602 -1.33511,2.57023 -5.53496,6.77259 -8.13837,8.14323 -2.96861,1.56291 -6.48605,2.63202 -8.73616,2.65534 -4.2167,0.0437 -5.32541,-2.17793 -3.26957,-6.55152 0.80894,-1.72097 3.82387,-4.8585 6.18822,-6.43987 2.07951,-1.39086 5.80562,-3.0625 6.23493,-2.79717 0.33544,0.20731 -0.19715,0.91335 -0.68898,0.91335 -0.61921,0 -5.43964,2.59896 -6.87654,3.70752 -1.75216,1.35178 -3.27804,3.30341 -4.34153,5.55289 -1.02119,2.16 -1.05833,3.38241 -0.12924,4.25336 0.61449,0.57603 0.90451,0.63891 2.84428,0.6167 3.65011,-0.0418 6.61416,-1.67697 10.29916,-5.68168 3.47911,-3.78097 6.53168,-9.93001 6.62667,-13.34867 0.0617,-2.22057 -0.15921,-2.43668 -2.03164,-1.98749 -1.78561,0.42836 -3.96321,0.24588 -4.66707,-0.3911 -0.70804,-0.64077 -0.72599,-2.51313 -0.0301,-3.14288 1.17063,-1.05941 3.41433,-0.7811 5.2105,0.64632 0.53927,0.42856 1.22101,0.77919 1.51498,0.77919 0.66926,0 2.8857,-1.69474 4.63386,-3.54316 2.73629,-2.89322 4.23847,-6.06789 4.4779,-9.46344 0.13639,-1.93442 0.11071,-2.05856 -0.56585,-2.73512 -0.83457,-0.83458 -0.59472,-0.94222 -4.65525,2.08928 -4.61548,3.44582 -9.21176,8.47119 -13.57171,14.83871 -4.72472,6.90023 -9.18367,11.6698 -15.00544,16.05073 -4.30847,3.24216 -4.92477,3.52574 -7.67076,3.52962 -1.87241,0.003 -2.49395,-0.11174 -3.71217,-0.68317 -1.94708,-0.91332 -8.93385,-5.64999 -13.53329,-9.17488 -5.06769,-3.88375 -4.65525,-3.62703 -5.37602,-3.34636 -0.34323,0.13365 -2.44825,1.95724 -4.67785,4.05242 -8.12351,7.63379 -12.21175,10.13407 -16.63662,10.17458 -3.02172,0.0277 -4.0612,-1.22123 -3.9057,-4.69252 0.0707,-1.57843 0.0201,-1.86243 -0.31252,-1.75515 -0.21828,0.0704 -1.30855,0.111 -2.42283,0.0902 -1.72338,-0.0321 -2.04397,0.0311 -2.1466,0.42356 -0.19775,0.75618 -4.50072,4.19799 -6.17292,4.93752 -2.87987,1.27361 -5.8045,1.32577 -6.45245,0.11506 -1.10694,-2.06833 0.95214,-5.4597 5.43221,-8.94706 1.51414,-1.17863 2.76676,-2.57542 2.76676,-3.0852 0,-0.1893 -0.16919,-0.48459 -0.37597,-0.65621 -0.58854,-0.48844 -2.49109,0.62247 -6.10977,3.56752 -3.9326,3.20054 -4.50911,3.55666 -5.75974,3.5579 -1.46726,0.001 -2.48387,0.53102 -4.55556,2.3731 -3.19327,2.83933 -5.52189,3.97789 -8.13574,3.97789 -1.4378,0 -1.65256,-0.0781 -2.47406,-0.89959 -0.86622,-0.86622 -0.89958,-0.97462 -0.89958,-2.92309 v -2.0235 l -2.3151,2.00101 c -5.80003,5.01314 -8.1212,6.02915 -13.71851,6.00482 -2.97217,-0.0129 -3.93059,-0.13238 -6.72793,-0.8386 l -3.26202,-0.82353 -2.4002,0.67933 c -3.67171,1.0392 -8.44163,1.4129 -11.52093,0.9026 z m 10.04677,-1.36417 1.98438,-0.64479 -0.95219,-0.41896 c -1.23729,-0.54441 -5.76394,-1.46304 -8.24108,-1.67243 -2.52126,-0.21313 -4.83349,0.39116 -5.28452,1.38107 -0.25461,0.55881 -0.21837,0.74563 0.23199,1.19599 0.76659,0.76659 2.63184,1.01806 6.70517,0.90396 2.87614,-0.0806 3.9584,-0.22565 5.55625,-0.74484 z m 35.39931,-1.72843 c 0.70055,-0.26619 1.98175,-0.96767 2.84711,-1.55884 1.97322,-1.34801 5.6156,-5.08902 6.59176,-6.77025 0.9188,-1.58244 1.03533,-3.22574 0.26944,-3.79977 -0.67096,-0.50289 -2.52961,-0.35298 -3.96491,0.31977 -2.29255,1.07458 -9.65729,9.24081 -9.65729,10.70829 0,1.54176 1.58222,1.98676 3.91389,1.1008 z m 41.0042,-7.32325 c 2.25354,-0.53132 4.00378,-1.46424 5.1711,-2.75631 1.09016,-1.20669 1.0806,-1.18093 0.7015,-1.88927 -0.63323,-1.1832 -3.47639,-0.33118 -6.47298,1.93978 -3.75018,2.84207 -3.56263,3.68731 0.60038,2.7058 z m 22.49454,-13.4679 c 6.09966,-5.98475 8.94507,-9.28981 11.44937,-13.29892 2.33931,-3.745 2.99923,-5.19717 3.70672,-8.15679 1.59504,-6.67248 -1.20504,-11.56233 -7.57034,-13.22028 -5.5595,-1.44807 -11.82878,1.14432 -14.39048,5.95055 -0.46288,0.86845 -1.05383,1.69259 -1.31322,1.83141 -0.73777,0.39484 -1.55653,0.0357 -1.85219,-0.81244 -0.22467,-0.64448 -0.15887,-0.98336 0.3921,-2.0196 0.36413,-0.68484 0.89485,-1.49295 1.17936,-1.79581 0.75353,-0.80209 0.64313,-1.29364 -0.51276,-2.28303 -2.41125,-2.06394 -7.12235,-3.61623 -9.90904,-3.26499 -1.85847,0.23425 -4.55561,1.42334 -5.88732,2.59556 -2.09511,1.84419 -3.50551,5.86155 -3.17848,9.05353 0.31143,3.03974 1.83332,7.6275 3.41089,10.28221 3.25974,5.48542 5.47032,8.31297 10.14369,12.97474 7.14893,7.13121 7.70282,7.60205 8.65106,7.35408 0.29301,-0.0766 2.84929,-2.41222 5.68064,-5.19022 z m 46.62044,1.35469 c 0.94329,-0.47725 0.94996,-1.10064 0.0189,-1.76363 -0.92026,-0.65528 -2.31801,-0.9493 -3.31881,-0.69812 -0.94215,0.23646 -1.34776,1.34081 -0.79968,2.17728 0.35272,0.53832 0.6217,0.6252 1.92526,0.62184 0.83339,-0.002 1.81185,-0.15396 2.17436,-0.33737 z m -116.7074,-0.874 c 9.09357,-3.79598 15.81575,-8.32029 20.38053,-13.71696 2.87196,-3.39536 3.64235,-5.3309 2.63269,-6.61447 -0.56326,-0.71608 -0.65114,-0.73788 -2.49695,-0.61942 -3.36979,0.21626 -7.46726,2.69668 -12.68256,7.67744 -1.45521,1.38976 -3.26806,3.34302 -4.02855,4.34057 -3.2083,4.20838 -3.84596,5.07881 -4.99568,6.81924 -1.39226,2.1076 -1.82393,3.06429 -1.38262,3.06429 0.16263,0 1.32054,-0.42781 2.57314,-0.95069 z m 121.69118,21.41225 c -0.68504,-0.18507 -1.00791,-1.44627 -0.71054,-2.77557 0.33343,-1.4905 1.11177,-2.79709 3.29733,-5.53522 0.97849,-1.22589 1.89318,-2.37772 2.03262,-2.55962 0.54665,-0.7131 -0.29899,-0.26438 -2.12824,1.1293 -1.16872,0.89042 -1.91635,1.31136 -1.91635,1.07895 0,-0.51593 1.76186,-2.00109 4.61053,-3.88643 2.02462,-1.33996 2.53426,-1.56239 3.57187,-1.55892 0.66567,0.002 1.38131,0.11226 1.59032,0.24451 0.43496,0.27523 0.29726,0.44778 -6.05058,7.58198 -2.18879,2.45992 -3.98121,4.68468 -3.98317,4.94391 -0.007,0.88628 0.81933,0.80189 2.99586,-0.30607 2.31467,-1.17827 7.50018,-5.21138 11.94954,-9.29393 1.45521,-1.33523 2.98042,-2.60248 3.38935,-2.8161 0.80186,-0.41888 2.60112,-0.39358 2.74053,0.0385 0.0469,0.14553 -2.24136,2.93022 -5.08512,6.18821 -3.00524,3.44298 -5.13667,6.10217 -5.08973,6.35 0.16088,0.84948 1.36191,0.59827 3.78039,-0.79071 2.75661,-1.58317 5.3667,-3.49813 7.80521,-5.7265 3.15117,-2.87961 5.67487,-4.88088 7.0063,-5.55591 1.41877,-0.71932 4.63536,-1.17093 4.63536,-0.65081 0,0.15598 -2.04062,2.58329 -4.53471,5.39404 -5.40211,6.08796 -5.85486,6.66253 -5.73701,7.28068 0.29863,1.56641 4.36255,-0.50942 9.28132,-4.74085 15.84292,-13.62907 16.51275,-14.25548 24.20128,-22.63246 2.97249,-3.23867 5.62574,-6.00687 5.8961,-6.15157 0.75794,-0.40563 2.64302,-0.33433 2.64302,0.1 0,0.19968 -1.59353,2.13444 -3.54118,4.29948 -13.17598,14.64659 -24.61479,27.59132 -24.94393,28.2278 -0.3016,0.58324 -0.31806,0.83369 -0.0741,1.12763 0.90837,1.09452 3.0299,-0.18531 9.37693,-5.65671 4.02271,-3.46774 6.11507,-5.07851 7.58095,-5.83607 2.20679,-1.14046 5.3741,-1.97292 6.99975,-1.83975 0.87591,0.0718 1.09881,0.22268 1.49231,1.0104 0.25442,0.50932 0.50295,1.0451 0.55228,1.19062 0.0513,0.15145 0.29656,0.0949 0.57345,-0.13229 0.26606,-0.21828 4.64362,-5.15937 9.72791,-10.98021 5.08429,-5.82083 9.55917,-10.85063 9.94417,-11.17733 0.94896,-0.80524 3.21356,-0.86832 3.21356,-0.0895 0,0.27892 -0.0952,0.54681 -0.21145,0.59532 -0.15851,0.0661 -19.09384,21.56871 -25.34348,28.77957 -1.03975,1.19967 -2.75549,3.70442 -2.75549,4.02266 0,1.23321 2.69203,-0.38137 8.18815,-4.91096 8.03173,-6.61929 9.77701,-8.13822 12.0136,-10.45552 2.32749,-2.41148 3.09989,-2.82056 3.30589,-1.75088 0.0639,0.33164 -0.21146,0.76199 -0.78913,1.23347 l -0.88722,0.72411 0.89275,1.7406 c 0.7709,1.50302 0.918,2.10475 1.07777,4.40853 0.12848,1.85271 0.29987,2.74172 0.56087,2.90941 0.76179,0.48941 2.96396,-0.37643 4.0723,-1.60113 1.04953,-1.15972 1.27044,-0.44925 0.2408,0.77441 -0.93194,1.10754 -1.94384,1.59078 -3.5343,1.68781 -1.25414,0.0765 -1.4385,0.18978 -3.37828,2.07564 -3.02147,2.93749 -5.86569,4.17383 -9.69508,4.2143 -2.11669,0.0224 -3.0483,-0.47966 -3.44282,-1.85527 -0.1965,-0.68513 -0.14148,-0.98177 0.28943,-1.56057 1.09393,-1.46941 3.30264,-1.44791 3.47366,0.0338 0.12585,1.09039 -0.39714,1.56417 -1.60002,1.44946 -0.79379,-0.0757 -0.99839,-0.01 -0.93845,0.30119 0.12557,0.65207 1.30245,1.10319 2.5855,0.99106 1.71595,-0.14995 3.46611,-1.07877 4.99188,-2.64922 1.87185,-1.92665 2.31399,-2.54728 3.27326,-4.59464 1.26945,-2.70934 1.37306,-6.59955 0.19261,-7.2313 -0.44533,-0.23834 -1.13548,0.25799 -5.08184,3.65465 -11.89573,10.23873 -14.8692,12.3109 -16.23377,11.31309 -0.37058,-0.27097 -0.42559,-0.60221 -0.30081,-1.81123 0.2278,-2.20724 -0.15129,-2.32949 -2.17848,-0.70256 -3.24883,2.60736 -5.96315,3.40943 -7.23522,2.13799 -0.49144,-0.49119 -0.59261,-0.93629 -0.67114,-2.95257 -0.052,-1.33429 -0.20763,-2.37419 -0.35539,-2.37419 -0.1446,0 -1.49857,1.0418 -3.00882,2.31511 -3.3569,2.83023 -4.55176,3.50573 -6.20122,3.50573 -2.03095,0 -2.59983,-1.20815 -1.7299,-3.67381 0.54974,-1.55813 1.6602,-3.08411 5.35881,-7.36402 1.78797,-2.06899 3.25086,-3.82935 3.25086,-3.91192 0,-0.31208 -1.17162,0.49683 -2.62441,1.81195 -11.75813,10.64388 -14.63857,12.81357 -17.56438,13.23037 -1.21263,0.17275 -2.04095,-0.48659 -2.02757,-1.61393 0.0231,-1.94795 1.99884,-5.51963 4.75662,-8.59896 0.74936,-0.83674 1.26366,-1.51834 1.14288,-1.51465 -0.42334,0.0129 -2.97914,1.9979 -5.35262,4.15718 -4.26213,3.87747 -8.60631,6.8015 -11.09459,7.46765 -0.9613,0.25736 -1.24961,0.23925 -1.78594,-0.11216 -1.16521,-0.76348 -0.75995,-2.53197 1.32604,-5.78662 0.54402,-0.84881 0.94221,-1.59021 0.88486,-1.64755 -0.0573,-0.0574 -0.87099,0.52877 -1.8081,1.30247 -6.00861,4.96091 -9.30688,6.83844 -11.14219,6.34264 z m 52.14366,-1.15832 c 3.00727,-1.36439 8.69134,-6.70333 10.01926,-9.4109 0.89895,-1.83292 0.66116,-2.83486 -0.70394,-2.96613 -1.7989,-0.17299 -4.64608,1.59785 -7.9675,4.9555 -3.68612,3.72634 -5.17403,6.45437 -4.10395,7.52446 0.57298,0.57298 1.32855,0.54476 2.75613,-0.10293 z m -15.43432,-18.92526 c -0.52556,-0.52556 -0.52405,-0.8994 0.007,-1.65713 0.29526,-0.42155 0.63382,-0.57868 1.12448,-0.52189 0.60266,0.0697 0.71364,0.22173 0.78416,1.0739 0.0715,0.86337 -0.008,1.02705 -0.61254,1.25677 -0.87525,0.33277 -0.81086,0.34027 -1.30279,-0.15165 z"
         id="path11"
         sodipodi:nodetypes="sssssscssssssssssssssssssscscssssssssssssssssssssssssssssssscssssssssssssssssssssssssssssssssssssssssssssssssssssssssssssscssssssssssssssscsssscssscsssscssssssssssssssssssssssssssssssssssssssscsssssssssssssssssscsscssssssssssssssssssssssssssssssssssscssssssssssssssssssssssssssssssssssssssssssssssssccssccc" /></g></g></svg>
